<svg id="Layer_1" data-name="Layer 1" xmlns="http://www.w3.org/2000/svg" viewBox="0 0 22.52 22.52"><path d="M12,2A10,10,0,1,1,2,12,10,10,0,0,1,12,2ZM12,.74A11.26,11.26,0,1,0,23.26,12,11.26,11.26,0,0,0,12,.74Zm0,6.34c1.6,0,1.79,0,2.43,0a2.26,2.26,0,0,1,2.46,2.46c0,.63,0,.82,0,2.42s0,1.79,0,2.42a2.26,2.26,0,0,1-2.46,2.46c-.64,0-.83,0-2.43,0s-1.79,0-2.42,0a2.25,2.25,0,0,1-2.46-2.46c0-.63,0-.82,0-2.42s0-1.79,0-2.42A2.25,2.25,0,0,1,9.58,7.12C10.21,7.09,10.4,7.08,12,7.08Zm0-.86c-1.57,0-1.77,0-2.38,0A3.18,3.18,0,0,0,6.26,9.62c0,.61,0,.81,0,2.38s0,1.77,0,2.38a3.18,3.18,0,0,0,3.36,3.36c.61,0,.81,0,2.38,0s1.77,0,2.38,0a3.18,3.18,0,0,0,3.36-3.36c0-.61,0-.81,0-2.38s0-1.77,0-2.38a3.18,3.18,0,0,0-3.36-3.36C13.77,6.23,13.57,6.22,12,6.22Zm0,2.86A2.92,2.92,0,1,0,14.92,12,2.92,2.92,0,0,0,12,9.08ZM12,14a2,2,0,1,1,2-2A2,2,0,0,1,12,14Zm3.2-5.76a.56.56,0,1,0,.56.56A.56.56,0,0,0,15.2,8.24Z" transform="translate(-0.74 -0.74)"/></svg>