<svg id="Layer_1" data-name="Layer 1" xmlns="http://www.w3.org/2000/svg" viewBox="0 0 22.73 22.73"><path d="M12,2A10,10,0,1,1,2,12,10,10,0,0,1,12,2ZM12,.64A11.36,11.36,0,1,0,23.36,12,11.35,11.35,0,0,0,12,.64ZM18.1,9a4.86,4.86,0,0,1-1.32.36,2.29,2.29,0,0,0,1-1.27,5,5,0,0,1-1.46.56,2.29,2.29,0,0,0-3.91,2.09,6.54,6.54,0,0,1-4.74-2.4,2.31,2.31,0,0,0,.71,3.07,2.31,2.31,0,0,1-1-.29A2.31,2.31,0,0,0,9.2,13.43a2.27,2.27,0,0,1-1,0,2.28,2.28,0,0,0,2.14,1.59,4.62,4.62,0,0,1-3.4,1,6.54,6.54,0,0,0,10-5.8A4.81,4.81,0,0,0,18.1,9Z" transform="translate(-0.64 -0.64)"/></svg>